<mxfile host="app.diagrams.net" modified="2022-04-08T21:52:45.838Z" agent="5.0 (Windows NT 10.0; Win64; x64) AppleWebKit/537.36 (KHTML, like Gecko) Chrome/100.0.4896.75 Safari/537.36" etag="IL0SPkeaN0AKBjo3Luxv" version="17.4.1" type="github">
  <diagram id="s0aPrs5HfquPw13XSlsm" name="Page-1">
    <mxGraphModel dx="1778" dy="993" grid="1" gridSize="10" guides="1" tooltips="1" connect="1" arrows="1" fold="1" page="1" pageScale="1" pageWidth="827" pageHeight="1169" math="0" shadow="0">
      <root>
        <mxCell id="0" />
        <mxCell id="1" parent="0" />
        <mxCell id="Yje8EIRbAULQ11PDXrBn-1" style="edgeStyle=orthogonalEdgeStyle;rounded=0;orthogonalLoop=1;jettySize=auto;html=1;fontSize=12;" edge="1" parent="1" source="Yje8EIRbAULQ11PDXrBn-5" target="Yje8EIRbAULQ11PDXrBn-18">
          <mxGeometry relative="1" as="geometry">
            <mxPoint x="940" y="435" as="targetPoint" />
            <Array as="points">
              <mxPoint x="970" y="390" />
              <mxPoint x="970" y="390" />
            </Array>
          </mxGeometry>
        </mxCell>
        <mxCell id="Yje8EIRbAULQ11PDXrBn-2" value="Recebe dados de cadastro" style="edgeLabel;html=1;align=center;verticalAlign=middle;resizable=0;points=[];fontSize=12;" vertex="1" connectable="0" parent="Yje8EIRbAULQ11PDXrBn-1">
          <mxGeometry x="0.1958" y="-1" relative="1" as="geometry">
            <mxPoint x="-24" y="-11" as="offset" />
          </mxGeometry>
        </mxCell>
        <mxCell id="Yje8EIRbAULQ11PDXrBn-47" style="edgeStyle=orthogonalEdgeStyle;rounded=0;orthogonalLoop=1;jettySize=auto;html=1;curved=1;" edge="1" parent="1" source="Yje8EIRbAULQ11PDXrBn-5" target="Yje8EIRbAULQ11PDXrBn-45">
          <mxGeometry relative="1" as="geometry" />
        </mxCell>
        <mxCell id="Yje8EIRbAULQ11PDXrBn-52" value="Aluno busca por professores" style="edgeLabel;html=1;align=center;verticalAlign=middle;resizable=0;points=[];fontSize=12;" vertex="1" connectable="0" parent="Yje8EIRbAULQ11PDXrBn-47">
          <mxGeometry x="-0.1164" y="1" relative="1" as="geometry">
            <mxPoint x="-1" y="-13" as="offset" />
          </mxGeometry>
        </mxCell>
        <mxCell id="Yje8EIRbAULQ11PDXrBn-63" style="edgeStyle=orthogonalEdgeStyle;curved=1;rounded=0;orthogonalLoop=1;jettySize=auto;html=1;fontSize=12;" edge="1" parent="1" source="Yje8EIRbAULQ11PDXrBn-5" target="Yje8EIRbAULQ11PDXrBn-61">
          <mxGeometry relative="1" as="geometry">
            <Array as="points">
              <mxPoint x="880" y="200" />
            </Array>
          </mxGeometry>
        </mxCell>
        <mxCell id="Yje8EIRbAULQ11PDXrBn-64" value="Aluno acessa perfil de professor" style="edgeLabel;html=1;align=center;verticalAlign=middle;resizable=0;points=[];fontSize=12;" vertex="1" connectable="0" parent="Yje8EIRbAULQ11PDXrBn-63">
          <mxGeometry x="-0.2881" y="-10" relative="1" as="geometry">
            <mxPoint x="50" y="28" as="offset" />
          </mxGeometry>
        </mxCell>
        <mxCell id="Yje8EIRbAULQ11PDXrBn-5" value="Instanciar Professor" style="swimlane;fontStyle=0;childLayout=stackLayout;horizontal=1;startSize=30;horizontalStack=0;resizeParent=1;resizeParentMax=0;resizeLast=0;collapsible=1;marginBottom=0;rounded=1;fontSize=13;" vertex="1" parent="1">
          <mxGeometry x="734" y="335" width="180" height="80" as="geometry" />
        </mxCell>
        <mxCell id="Yje8EIRbAULQ11PDXrBn-6" value="new()" style="text;strokeColor=none;fillColor=none;align=left;verticalAlign=top;spacingLeft=4;spacingRight=4;overflow=hidden;points=[[0,0.5],[1,0.5]];portConstraint=eastwest;rotatable=0;fontSize=13;" vertex="1" parent="Yje8EIRbAULQ11PDXrBn-5">
          <mxGeometry y="30" width="180" height="50" as="geometry" />
        </mxCell>
        <mxCell id="Yje8EIRbAULQ11PDXrBn-7" value="" style="group" vertex="1" connectable="0" parent="1">
          <mxGeometry x="794" y="210" width="60" height="50" as="geometry" />
        </mxCell>
        <mxCell id="Yje8EIRbAULQ11PDXrBn-8" value="" style="ellipse;html=1;shape=startState;fillColor=#000000;strokeColor=#ff0000;rounded=1;" vertex="1" parent="Yje8EIRbAULQ11PDXrBn-7">
          <mxGeometry x="15" y="20" width="30" height="30" as="geometry" />
        </mxCell>
        <mxCell id="Yje8EIRbAULQ11PDXrBn-9" value="Start" style="text;html=1;strokeColor=none;fillColor=none;align=center;verticalAlign=middle;whiteSpace=wrap;rounded=0;" vertex="1" parent="Yje8EIRbAULQ11PDXrBn-7">
          <mxGeometry width="60" height="30" as="geometry" />
        </mxCell>
        <mxCell id="Yje8EIRbAULQ11PDXrBn-10" value="" style="group" vertex="1" connectable="0" parent="1">
          <mxGeometry x="360" y="610" width="60" height="50" as="geometry" />
        </mxCell>
        <mxCell id="Yje8EIRbAULQ11PDXrBn-11" value="" style="ellipse;html=1;shape=endState;fillColor=#000000;strokeColor=#ff0000;rounded=1;" vertex="1" parent="Yje8EIRbAULQ11PDXrBn-10">
          <mxGeometry x="15" y="20" width="30" height="30" as="geometry" />
        </mxCell>
        <mxCell id="Yje8EIRbAULQ11PDXrBn-12" value="End" style="text;html=1;strokeColor=none;fillColor=none;align=center;verticalAlign=middle;whiteSpace=wrap;rounded=0;" vertex="1" parent="Yje8EIRbAULQ11PDXrBn-10">
          <mxGeometry width="60" height="30" as="geometry" />
        </mxCell>
        <mxCell id="Yje8EIRbAULQ11PDXrBn-13" style="edgeStyle=orthogonalEdgeStyle;rounded=0;orthogonalLoop=1;jettySize=auto;html=1;" edge="1" parent="1" source="Yje8EIRbAULQ11PDXrBn-8" target="Yje8EIRbAULQ11PDXrBn-5">
          <mxGeometry relative="1" as="geometry" />
        </mxCell>
        <mxCell id="Yje8EIRbAULQ11PDXrBn-14" style="edgeStyle=orthogonalEdgeStyle;rounded=0;orthogonalLoop=1;jettySize=auto;html=1;fontSize=12;curved=1;" edge="1" parent="1" source="Yje8EIRbAULQ11PDXrBn-18" target="Yje8EIRbAULQ11PDXrBn-21">
          <mxGeometry relative="1" as="geometry">
            <Array as="points">
              <mxPoint x="1130" y="515" />
            </Array>
          </mxGeometry>
        </mxCell>
        <mxCell id="Yje8EIRbAULQ11PDXrBn-15" value="Professor existe" style="edgeLabel;html=1;align=center;verticalAlign=middle;resizable=0;points=[];fontSize=12;" vertex="1" connectable="0" parent="Yje8EIRbAULQ11PDXrBn-14">
          <mxGeometry x="-0.2045" y="10" relative="1" as="geometry">
            <mxPoint x="-30" y="-23" as="offset" />
          </mxGeometry>
        </mxCell>
        <mxCell id="Yje8EIRbAULQ11PDXrBn-16" style="edgeStyle=orthogonalEdgeStyle;curved=1;rounded=0;orthogonalLoop=1;jettySize=auto;html=1;fontSize=12;" edge="1" parent="1" source="Yje8EIRbAULQ11PDXrBn-18" target="Yje8EIRbAULQ11PDXrBn-25">
          <mxGeometry relative="1" as="geometry">
            <Array as="points">
              <mxPoint x="1210" y="515" />
            </Array>
          </mxGeometry>
        </mxCell>
        <mxCell id="Yje8EIRbAULQ11PDXrBn-17" value="Professor não existe" style="edgeLabel;html=1;align=center;verticalAlign=middle;resizable=0;points=[];fontSize=12;" vertex="1" connectable="0" parent="Yje8EIRbAULQ11PDXrBn-16">
          <mxGeometry x="-0.5263" y="-9" relative="1" as="geometry">
            <mxPoint x="19" y="-7" as="offset" />
          </mxGeometry>
        </mxCell>
        <mxCell id="Yje8EIRbAULQ11PDXrBn-18" value="Verificação" style="swimlane;fontStyle=0;childLayout=stackLayout;horizontal=1;startSize=30;horizontalStack=0;resizeParent=1;resizeParentMax=0;resizeLast=0;collapsible=1;marginBottom=0;rounded=1;fontSize=13;" vertex="1" parent="1">
          <mxGeometry x="1080" y="335" width="180" height="80" as="geometry" />
        </mxCell>
        <mxCell id="Yje8EIRbAULQ11PDXrBn-19" value="cadastrar()&#xa;verificarExiste()" style="text;strokeColor=none;fillColor=none;align=left;verticalAlign=top;spacingLeft=4;spacingRight=4;overflow=hidden;points=[[0,0.5],[1,0.5]];portConstraint=eastwest;rotatable=0;fontSize=13;" vertex="1" parent="Yje8EIRbAULQ11PDXrBn-18">
          <mxGeometry y="30" width="180" height="50" as="geometry" />
        </mxCell>
        <mxCell id="Yje8EIRbAULQ11PDXrBn-20" style="edgeStyle=orthogonalEdgeStyle;curved=1;rounded=0;orthogonalLoop=1;jettySize=auto;html=1;fontSize=12;" edge="1" parent="1" source="Yje8EIRbAULQ11PDXrBn-21" target="Yje8EIRbAULQ11PDXrBn-38">
          <mxGeometry relative="1" as="geometry">
            <Array as="points">
              <mxPoint x="660" y="515" />
            </Array>
          </mxGeometry>
        </mxCell>
        <mxCell id="Yje8EIRbAULQ11PDXrBn-21" value="Recusado" style="swimlane;fontStyle=0;childLayout=stackLayout;horizontal=1;startSize=30;horizontalStack=0;resizeParent=1;resizeParentMax=0;resizeLast=0;collapsible=1;marginBottom=0;rounded=1;fontSize=13;" vertex="1" parent="1">
          <mxGeometry x="750" y="475" width="180" height="80" as="geometry" />
        </mxCell>
        <mxCell id="Yje8EIRbAULQ11PDXrBn-22" value="mensagem de erro&#xa;" style="text;strokeColor=none;fillColor=none;align=left;verticalAlign=top;spacingLeft=4;spacingRight=4;overflow=hidden;points=[[0,0.5],[1,0.5]];portConstraint=eastwest;rotatable=0;fontSize=13;" vertex="1" parent="Yje8EIRbAULQ11PDXrBn-21">
          <mxGeometry y="30" width="180" height="50" as="geometry" />
        </mxCell>
        <mxCell id="Yje8EIRbAULQ11PDXrBn-23" style="edgeStyle=orthogonalEdgeStyle;rounded=0;orthogonalLoop=1;jettySize=auto;html=1;fontSize=12;curved=1;" edge="1" parent="1" source="Yje8EIRbAULQ11PDXrBn-25" target="Yje8EIRbAULQ11PDXrBn-28">
          <mxGeometry relative="1" as="geometry">
            <Array as="points">
              <mxPoint x="1510" y="515" />
              <mxPoint x="1510" y="670" />
            </Array>
          </mxGeometry>
        </mxCell>
        <mxCell id="Yje8EIRbAULQ11PDXrBn-24" value="Recebe fotos" style="edgeLabel;html=1;align=center;verticalAlign=middle;resizable=0;points=[];fontSize=12;" vertex="1" connectable="0" parent="Yje8EIRbAULQ11PDXrBn-23">
          <mxGeometry x="-0.1191" y="-1" relative="1" as="geometry">
            <mxPoint x="3" y="14" as="offset" />
          </mxGeometry>
        </mxCell>
        <mxCell id="Yje8EIRbAULQ11PDXrBn-25" value="Esperando fotos" style="swimlane;fontStyle=0;childLayout=stackLayout;horizontal=1;startSize=30;horizontalStack=0;resizeParent=1;resizeParentMax=0;resizeLast=0;collapsible=1;marginBottom=0;rounded=1;fontSize=13;" vertex="1" parent="1">
          <mxGeometry x="1270" y="475" width="180" height="80" as="geometry" />
        </mxCell>
        <mxCell id="Yje8EIRbAULQ11PDXrBn-26" value="wait" style="text;strokeColor=none;fillColor=none;align=left;verticalAlign=top;spacingLeft=4;spacingRight=4;overflow=hidden;points=[[0,0.5],[1,0.5]];portConstraint=eastwest;rotatable=0;fontSize=13;" vertex="1" parent="Yje8EIRbAULQ11PDXrBn-25">
          <mxGeometry y="30" width="180" height="50" as="geometry" />
        </mxCell>
        <mxCell id="Yje8EIRbAULQ11PDXrBn-27" style="edgeStyle=orthogonalEdgeStyle;curved=1;rounded=0;orthogonalLoop=1;jettySize=auto;html=1;fontSize=12;" edge="1" parent="1" source="Yje8EIRbAULQ11PDXrBn-28" target="Yje8EIRbAULQ11PDXrBn-32">
          <mxGeometry relative="1" as="geometry" />
        </mxCell>
        <mxCell id="Yje8EIRbAULQ11PDXrBn-28" value="Upload de fotos" style="swimlane;fontStyle=0;childLayout=stackLayout;horizontal=1;startSize=30;horizontalStack=0;resizeParent=1;resizeParentMax=0;resizeLast=0;collapsible=1;marginBottom=0;rounded=1;fontSize=13;" vertex="1" parent="1">
          <mxGeometry x="1270" y="630" width="180" height="80" as="geometry" />
        </mxCell>
        <mxCell id="Yje8EIRbAULQ11PDXrBn-29" value="uploadFotos()" style="text;strokeColor=none;fillColor=none;align=left;verticalAlign=top;spacingLeft=4;spacingRight=4;overflow=hidden;points=[[0,0.5],[1,0.5]];portConstraint=eastwest;rotatable=0;fontSize=13;" vertex="1" parent="Yje8EIRbAULQ11PDXrBn-28">
          <mxGeometry y="30" width="180" height="50" as="geometry" />
        </mxCell>
        <mxCell id="Yje8EIRbAULQ11PDXrBn-30" style="edgeStyle=orthogonalEdgeStyle;curved=1;rounded=0;orthogonalLoop=1;jettySize=auto;html=1;fontSize=12;" edge="1" parent="1" source="Yje8EIRbAULQ11PDXrBn-32" target="Yje8EIRbAULQ11PDXrBn-21">
          <mxGeometry relative="1" as="geometry">
            <Array as="points">
              <mxPoint x="870" y="650" />
            </Array>
          </mxGeometry>
        </mxCell>
        <mxCell id="Yje8EIRbAULQ11PDXrBn-31" value="Funcionário recusa" style="edgeLabel;html=1;align=center;verticalAlign=middle;resizable=0;points=[];fontSize=12;" vertex="1" connectable="0" parent="Yje8EIRbAULQ11PDXrBn-30">
          <mxGeometry x="0.3189" y="-15" relative="1" as="geometry">
            <mxPoint x="-15" y="-28" as="offset" />
          </mxGeometry>
        </mxCell>
        <mxCell id="Yje8EIRbAULQ11PDXrBn-32" value="Aguardando aprovação" style="swimlane;fontStyle=0;childLayout=stackLayout;horizontal=1;startSize=30;horizontalStack=0;resizeParent=1;resizeParentMax=0;resizeLast=0;collapsible=1;marginBottom=0;rounded=1;fontSize=13;" vertex="1" parent="1">
          <mxGeometry x="1020" y="630" width="180" height="80" as="geometry" />
        </mxCell>
        <mxCell id="Yje8EIRbAULQ11PDXrBn-33" value="wait" style="text;strokeColor=none;fillColor=none;align=left;verticalAlign=top;spacingLeft=4;spacingRight=4;overflow=hidden;points=[[0,0.5],[1,0.5]];portConstraint=eastwest;rotatable=0;fontSize=13;" vertex="1" parent="Yje8EIRbAULQ11PDXrBn-32">
          <mxGeometry y="30" width="180" height="50" as="geometry" />
        </mxCell>
        <mxCell id="Yje8EIRbAULQ11PDXrBn-34" style="edgeStyle=orthogonalEdgeStyle;curved=1;rounded=0;orthogonalLoop=1;jettySize=auto;html=1;fontSize=12;" edge="1" parent="1" source="Yje8EIRbAULQ11PDXrBn-35" target="Yje8EIRbAULQ11PDXrBn-38">
          <mxGeometry relative="1" as="geometry" />
        </mxCell>
        <mxCell id="Yje8EIRbAULQ11PDXrBn-35" value="Cadastrando" style="swimlane;fontStyle=0;childLayout=stackLayout;horizontal=1;startSize=30;horizontalStack=0;resizeParent=1;resizeParentMax=0;resizeLast=0;collapsible=1;marginBottom=0;rounded=1;fontSize=13;" vertex="1" parent="1">
          <mxGeometry x="760" y="745" width="180" height="80" as="geometry" />
        </mxCell>
        <mxCell id="Yje8EIRbAULQ11PDXrBn-36" value="confirmaCadastro()&#xa;mensagem de confirmação" style="text;strokeColor=none;fillColor=none;align=left;verticalAlign=top;spacingLeft=4;spacingRight=4;overflow=hidden;points=[[0,0.5],[1,0.5]];portConstraint=eastwest;rotatable=0;fontSize=13;" vertex="1" parent="Yje8EIRbAULQ11PDXrBn-35">
          <mxGeometry y="30" width="180" height="50" as="geometry" />
        </mxCell>
        <mxCell id="Yje8EIRbAULQ11PDXrBn-37" style="edgeStyle=orthogonalEdgeStyle;curved=1;rounded=0;orthogonalLoop=1;jettySize=auto;html=1;fontSize=12;" edge="1" parent="1" source="Yje8EIRbAULQ11PDXrBn-38" target="Yje8EIRbAULQ11PDXrBn-11">
          <mxGeometry relative="1" as="geometry" />
        </mxCell>
        <mxCell id="Yje8EIRbAULQ11PDXrBn-38" value="Finalizar" style="swimlane;fontStyle=0;childLayout=stackLayout;horizontal=1;startSize=30;horizontalStack=0;resizeParent=1;resizeParentMax=0;resizeLast=0;collapsible=1;marginBottom=0;rounded=1;fontSize=13;" vertex="1" parent="1">
          <mxGeometry x="540" y="605" width="180" height="80" as="geometry" />
        </mxCell>
        <mxCell id="Yje8EIRbAULQ11PDXrBn-39" value="kill()" style="text;strokeColor=none;fillColor=none;align=left;verticalAlign=top;spacingLeft=4;spacingRight=4;overflow=hidden;points=[[0,0.5],[1,0.5]];portConstraint=eastwest;rotatable=0;fontSize=13;" vertex="1" parent="Yje8EIRbAULQ11PDXrBn-38">
          <mxGeometry y="30" width="180" height="50" as="geometry" />
        </mxCell>
        <mxCell id="Yje8EIRbAULQ11PDXrBn-40" style="edgeStyle=orthogonalEdgeStyle;curved=1;rounded=0;orthogonalLoop=1;jettySize=auto;html=1;fontSize=12;" edge="1" parent="1" source="Yje8EIRbAULQ11PDXrBn-33" target="Yje8EIRbAULQ11PDXrBn-35">
          <mxGeometry relative="1" as="geometry">
            <Array as="points">
              <mxPoint x="870" y="680" />
            </Array>
          </mxGeometry>
        </mxCell>
        <mxCell id="Yje8EIRbAULQ11PDXrBn-41" value="Funcionário aprova" style="edgeLabel;html=1;align=center;verticalAlign=middle;resizable=0;points=[];fontSize=12;" vertex="1" connectable="0" parent="Yje8EIRbAULQ11PDXrBn-40">
          <mxGeometry x="-0.4683" y="3" relative="1" as="geometry">
            <mxPoint x="-93" y="17" as="offset" />
          </mxGeometry>
        </mxCell>
        <mxCell id="Yje8EIRbAULQ11PDXrBn-55" style="edgeStyle=orthogonalEdgeStyle;curved=1;rounded=0;orthogonalLoop=1;jettySize=auto;html=1;" edge="1" parent="1" source="Yje8EIRbAULQ11PDXrBn-45" target="Yje8EIRbAULQ11PDXrBn-48">
          <mxGeometry relative="1" as="geometry" />
        </mxCell>
        <mxCell id="Yje8EIRbAULQ11PDXrBn-58" value="Encontra professor(es)" style="edgeLabel;html=1;align=center;verticalAlign=middle;resizable=0;points=[];fontSize=12;" vertex="1" connectable="0" parent="Yje8EIRbAULQ11PDXrBn-55">
          <mxGeometry x="-0.1162" y="30" relative="1" as="geometry">
            <mxPoint as="offset" />
          </mxGeometry>
        </mxCell>
        <mxCell id="Yje8EIRbAULQ11PDXrBn-56" style="edgeStyle=orthogonalEdgeStyle;curved=1;rounded=0;orthogonalLoop=1;jettySize=auto;html=1;" edge="1" parent="1" source="Yje8EIRbAULQ11PDXrBn-45" target="Yje8EIRbAULQ11PDXrBn-53">
          <mxGeometry relative="1" as="geometry" />
        </mxCell>
        <mxCell id="Yje8EIRbAULQ11PDXrBn-57" value="Não encontra professor" style="edgeLabel;html=1;align=center;verticalAlign=middle;resizable=0;points=[];fontSize=12;" vertex="1" connectable="0" parent="Yje8EIRbAULQ11PDXrBn-56">
          <mxGeometry x="-0.2481" y="-1" relative="1" as="geometry">
            <mxPoint as="offset" />
          </mxGeometry>
        </mxCell>
        <mxCell id="Yje8EIRbAULQ11PDXrBn-45" value="Buscar Professor" style="swimlane;fontStyle=0;childLayout=stackLayout;horizontal=1;startSize=30;horizontalStack=0;resizeParent=1;resizeParentMax=0;resizeLast=0;collapsible=1;marginBottom=0;rounded=1;fontSize=13;" vertex="1" parent="1">
          <mxGeometry x="370" y="260" width="180" height="80" as="geometry" />
        </mxCell>
        <mxCell id="Yje8EIRbAULQ11PDXrBn-46" value="buscaProfessor()" style="text;strokeColor=none;fillColor=none;align=left;verticalAlign=top;spacingLeft=4;spacingRight=4;overflow=hidden;points=[[0,0.5],[1,0.5]];portConstraint=eastwest;rotatable=0;fontSize=13;" vertex="1" parent="Yje8EIRbAULQ11PDXrBn-45">
          <mxGeometry y="30" width="180" height="50" as="geometry" />
        </mxCell>
        <mxCell id="Yje8EIRbAULQ11PDXrBn-60" style="edgeStyle=orthogonalEdgeStyle;curved=1;rounded=0;orthogonalLoop=1;jettySize=auto;html=1;" edge="1" parent="1" source="Yje8EIRbAULQ11PDXrBn-48" target="Yje8EIRbAULQ11PDXrBn-38">
          <mxGeometry relative="1" as="geometry">
            <Array as="points">
              <mxPoint x="190" y="570" />
              <mxPoint x="580" y="570" />
            </Array>
          </mxGeometry>
        </mxCell>
        <mxCell id="Yje8EIRbAULQ11PDXrBn-48" value="Encontrou professor" style="swimlane;fontStyle=0;childLayout=stackLayout;horizontal=1;startSize=30;horizontalStack=0;resizeParent=1;resizeParentMax=0;resizeLast=0;collapsible=1;marginBottom=0;rounded=1;fontSize=13;" vertex="1" parent="1">
          <mxGeometry x="100" y="430" width="180" height="80" as="geometry" />
        </mxCell>
        <mxCell id="Yje8EIRbAULQ11PDXrBn-49" value="retorna lista Professores" style="text;strokeColor=none;fillColor=none;align=left;verticalAlign=top;spacingLeft=4;spacingRight=4;overflow=hidden;points=[[0,0.5],[1,0.5]];portConstraint=eastwest;rotatable=0;fontSize=13;" vertex="1" parent="Yje8EIRbAULQ11PDXrBn-48">
          <mxGeometry y="30" width="180" height="50" as="geometry" />
        </mxCell>
        <mxCell id="Yje8EIRbAULQ11PDXrBn-59" style="edgeStyle=orthogonalEdgeStyle;curved=1;rounded=0;orthogonalLoop=1;jettySize=auto;html=1;" edge="1" parent="1" source="Yje8EIRbAULQ11PDXrBn-53" target="Yje8EIRbAULQ11PDXrBn-38">
          <mxGeometry relative="1" as="geometry">
            <Array as="points">
              <mxPoint x="460" y="540" />
              <mxPoint x="630" y="540" />
            </Array>
          </mxGeometry>
        </mxCell>
        <mxCell id="Yje8EIRbAULQ11PDXrBn-53" value="Não encontrou professor" style="swimlane;fontStyle=0;childLayout=stackLayout;horizontal=1;startSize=30;horizontalStack=0;resizeParent=1;resizeParentMax=0;resizeLast=0;collapsible=1;marginBottom=0;rounded=1;fontSize=13;" vertex="1" parent="1">
          <mxGeometry x="370" y="430" width="180" height="80" as="geometry" />
        </mxCell>
        <mxCell id="Yje8EIRbAULQ11PDXrBn-54" value="mensagem" style="text;strokeColor=none;fillColor=none;align=left;verticalAlign=top;spacingLeft=4;spacingRight=4;overflow=hidden;points=[[0,0.5],[1,0.5]];portConstraint=eastwest;rotatable=0;fontSize=13;" vertex="1" parent="Yje8EIRbAULQ11PDXrBn-53">
          <mxGeometry y="30" width="180" height="50" as="geometry" />
        </mxCell>
        <mxCell id="Yje8EIRbAULQ11PDXrBn-68" style="edgeStyle=orthogonalEdgeStyle;curved=1;rounded=0;orthogonalLoop=1;jettySize=auto;html=1;fontSize=12;" edge="1" parent="1" source="Yje8EIRbAULQ11PDXrBn-61" target="Yje8EIRbAULQ11PDXrBn-66">
          <mxGeometry relative="1" as="geometry" />
        </mxCell>
        <mxCell id="Yje8EIRbAULQ11PDXrBn-61" value="Acessando professor" style="swimlane;fontStyle=0;childLayout=stackLayout;horizontal=1;startSize=30;horizontalStack=0;resizeParent=1;resizeParentMax=0;resizeLast=0;collapsible=1;marginBottom=0;rounded=1;fontSize=13;" vertex="1" parent="1">
          <mxGeometry x="980" y="145" width="180" height="80" as="geometry" />
        </mxCell>
        <mxCell id="Yje8EIRbAULQ11PDXrBn-62" value="acessaProfessor()&#xa;retorna Professor" style="text;strokeColor=none;fillColor=none;align=left;verticalAlign=top;spacingLeft=4;spacingRight=4;overflow=hidden;points=[[0,0.5],[1,0.5]];portConstraint=eastwest;rotatable=0;fontSize=13;" vertex="1" parent="Yje8EIRbAULQ11PDXrBn-61">
          <mxGeometry y="30" width="180" height="50" as="geometry" />
        </mxCell>
        <mxCell id="Yje8EIRbAULQ11PDXrBn-73" style="edgeStyle=orthogonalEdgeStyle;curved=1;rounded=0;orthogonalLoop=1;jettySize=auto;html=1;fontSize=12;" edge="1" parent="1" source="Yje8EIRbAULQ11PDXrBn-66" target="Yje8EIRbAULQ11PDXrBn-71">
          <mxGeometry relative="1" as="geometry" />
        </mxCell>
        <mxCell id="Yje8EIRbAULQ11PDXrBn-66" value="Finaliza" style="swimlane;fontStyle=0;childLayout=stackLayout;horizontal=1;startSize=30;horizontalStack=0;resizeParent=1;resizeParentMax=0;resizeLast=0;collapsible=1;marginBottom=0;rounded=1;fontSize=13;" vertex="1" parent="1">
          <mxGeometry x="1230" y="145" width="180" height="80" as="geometry" />
        </mxCell>
        <mxCell id="Yje8EIRbAULQ11PDXrBn-67" value="kill()" style="text;strokeColor=none;fillColor=none;align=left;verticalAlign=top;spacingLeft=4;spacingRight=4;overflow=hidden;points=[[0,0.5],[1,0.5]];portConstraint=eastwest;rotatable=0;fontSize=13;" vertex="1" parent="Yje8EIRbAULQ11PDXrBn-66">
          <mxGeometry y="30" width="180" height="50" as="geometry" />
        </mxCell>
        <mxCell id="Yje8EIRbAULQ11PDXrBn-70" value="" style="group" vertex="1" connectable="0" parent="1">
          <mxGeometry x="1490" y="150" width="60" height="50" as="geometry" />
        </mxCell>
        <mxCell id="Yje8EIRbAULQ11PDXrBn-71" value="" style="ellipse;html=1;shape=endState;fillColor=#000000;strokeColor=#ff0000;rounded=1;" vertex="1" parent="Yje8EIRbAULQ11PDXrBn-70">
          <mxGeometry x="15" y="20" width="30" height="30" as="geometry" />
        </mxCell>
        <mxCell id="Yje8EIRbAULQ11PDXrBn-72" value="End" style="text;html=1;strokeColor=none;fillColor=none;align=center;verticalAlign=middle;whiteSpace=wrap;rounded=0;" vertex="1" parent="Yje8EIRbAULQ11PDXrBn-70">
          <mxGeometry width="60" height="30" as="geometry" />
        </mxCell>
      </root>
    </mxGraphModel>
  </diagram>
</mxfile>
